<svg fill="none" height="34" viewBox="0 0 424 34" width="424" xmlns="http://www.w3.org/2000/svg"><g fill="#e52228" transform="matrix(2 0 0 2 266.849 .01239)"><path d="m14.9594 8.49533c0 1.25376-.2091 2.40377-.6275 3.44997-.4099 1.0463-.9606 1.9412-1.6522 2.6848-.6917.7436-1.4857 1.323-2.3823 1.738-.89652.415-1.83575.6226-2.81768.6226-.98192 0-1.92543-.2076-2.83051-.6226-.89654-.415-1.69062-.9944-2.38224-1.738s-1.24235-1.6385-1.652198-2.6848c-.409848-1.0462-.614772-2.19621-.614772-3.44997s.204924-2.40377.614772-3.45001c.409848-1.04625.960578-1.94117 1.652198-2.68479.69162-.74361 1.4857-1.32293 2.38224-1.737972.90508-.415039 1.84859-.622558 2.83051-.622558.98193 0 1.92116.207519 2.81768.622558.8966.415042 1.6906.994362 2.3823 1.737972.6916.74362 1.2423 1.63854 1.6522 2.68479.4184 1.04624.6275 2.19625.6275 3.45001zm-13.6402 0c0 1.09812.16223 2.09677.48669 2.99607.333.8906.78554 1.6558 1.35762 2.2957.57208.6312 1.22955 1.124 1.9724 1.4786.74284.3545 1.52412.5317 2.34381.5317.8197 0 1.60097-.1772 2.34382-.5317.74286-.3546 1.39606-.8474 1.95956-1.4786.5721-.6399 1.0246-1.4051 1.3576-2.2957.333-.8993.4995-1.89795.4995-2.99607 0-1.09813-.1665-2.09249-.4995-2.98309-.333-.89926-.7855-1.66448-1.3576-2.29569-.5635-.63985-1.2167-1.13703-1.95956-1.49154-.74285-.35452-1.52412-.53177-2.34382-.53177-.81969 0-1.60097.17725-2.34381.53177-.74285.35451-1.40032.85169-1.9724 1.49154-.57208.63121-1.02462 1.39643-1.35762 2.29569-.32446.8906-.48669 1.88496-.48669 2.98309z"/><path d="m29.9061.1297v16.7313h-1.1783l-9.0551-14.21513v14.21513h-1.3064v-16.7313h1.1783l9.0551 14.2021v-14.2021z"/><path d="m43.9562 15.6677v1.1933h-9.5802v-16.7313h1.3064v15.538z"/><path d="m47.8753 16.861h-1.3063v-16.7313h1.3063z"/><path d="m63.8722.1297v16.7313h-1.1783l-9.0551-14.21513v14.21513h-1.3064v-16.7313h1.1784l9.055 14.2021v-14.2021z"/><path d="m78.5755 15.6677v1.1933h-10.2334v-16.7313h9.9644v1.19324h-8.658v6.23855h8.0048v1.19324h-8.0048v6.91297z"/></g><g fill="#fff" transform="scale(2)"><path d="m14.1643.132815h3.41v16.734385h-3.8034v-8.3672l-3.8034 8.3672h-2.36072l-3.80339-8.3672v8.3672h-3.80339v-16.734385h3.40993l5.37721 11.820285z"/><path d="m20.7229.132815h11.8036v3.718745h-8.0002v2.65625h7.3445v3.71879h-7.3445v2.9218h8.2625v3.7188h-12.0659z"/><path d="m49.3026.132815v16.734385h-3.4099l-6.6887-9.82814v9.82814h-3.8034v-16.734385h3.4099l6.6888 9.828125v-9.828125z"/><path d="m59.6738 16.8672h-3.8033v-13.01564h-4.7215v-3.718745h13.2463v3.718745h-4.7215z"/><path d="m77.4018 8.5c0-.69062-.1137-1.32812-.341-1.9125-.2273-.58437-.5421-1.08906-.9443-1.51406-.3847-.425-.8393-.7526-1.3639-.98281-.5246-.24792-1.0842-.37188-1.6788-.37188-.5945 0-1.1541.12396-1.6787.37188-.5246.23021-.988.55781-1.3902.98281-.3847.425-.6908.92969-.9181 1.51406-.2273.58438-.341 1.22188-.341 1.9125 0 .69063.1137 1.32813.341 1.9125.2273.5844.5334 1.0891.9181 1.5141.4022.425.8656.7614 1.3902 1.0093.5246.2302 1.0842.3454 1.6787.3454.5946 0 1.1542-.1152 1.6788-.3454.5246-.2479.9792-.5843 1.3639-1.0093.4022-.425.717-.9297.9443-1.5141.2273-.58437.341-1.22187.341-1.9125zm3.8034 0c0 1.20417-.2186 2.3198-.6558 3.3469-.4197 1.0271-.9967 1.9302-1.7312 2.7094-.7344.7614-1.6 1.3635-2.5968 1.8062-.9792.425-2.0284.6375-3.1476.6375-1.1191 0-2.1771-.2125-3.1739-.6375-.9792-.4427-1.8361-1.0448-2.5705-1.8062-.7345-.7792-1.3203-1.6823-1.7574-2.7094-.4197-1.0271-.6296-2.14273-.6296-3.3469 0-1.18646.2099-2.29323.6296-3.32031.4371-1.04479 1.0229-1.94792 1.7574-2.70938.7344-.77916 1.5913-1.38125 2.5705-1.806245.9968-.442708 2.0548-.66406194 3.1739-.66406194 1.1192 0 2.1684.22135394 3.1476.66406194.9968.424995 1.8624 1.027085 2.5968 1.806245.7345.76146 1.3115 1.66459 1.7312 2.70938.4372 1.02708.6558 2.13385.6558 3.32031z"/><path d="m90.2464.132815c.8569 0 1.6351.141667 2.3345.425.717.283334 1.329.664065 1.8361 1.142185.5072.47813.9006 1.04479 1.1804 1.7.2798.6375.4197 1.31927.4197 2.04531 0 .93855-.1661 1.72657-.4984 2.36407-.3147.6375-.6732 1.15989-1.0754 1.56718-.3847.38959-.7432.67294-1.0755.85004-.3322.177-.4983.2656-.4983.2656l3.6722 6.375h-4.1968l-3.0165-5.5781h-1.9673v5.5781h-3.8034v-16.734385zm0 7.437495c.6645 0 1.1804-.17708 1.5476-.53125.3672-.35416.5509-.79687.5509-1.32812s-.1837-.97396-.5509-1.32813c-.3672-.35416-.8831-.53125-1.5476-.53125h-2.8853v3.71875z"/><path d="m98.5172.132815h11.8038v3.718745h-8v2.65625h7.344v3.71879h-7.344v2.9218h8.262v3.7188h-12.0658z"/><path d="m112.539 4.78125c0-.6375.131-1.23958.394-1.80625.279-.58437.673-1.08906 1.18-1.51406.507-.44271 1.119-.796875 1.836-1.0625.734-.265625 1.565-.39843694 2.492-.39843694.892 0 1.687.13281194 2.387.39843694.717.265625 1.32.6375 1.81 1.11562.507.47813.892 1.0448 1.154 1.7.28.63751.42 1.33698.42 2.09844l-3.673.26563c0-.67292-.183-1.19532-.551-1.56719-.367-.37187-.883-.55781-1.547-.55781-.595 0-1.076.16823-1.443.50468-.35.31876-.524.68178-.524 1.08907s.201.71718.603.92968.9.41615 1.495.61094c.612.17709 1.268.37188 1.967.58438.7.2125 1.347.51354 1.941.90312.612.38959 1.119.90313 1.522 1.54063.402.63747.603 1.46097.603 2.47027 0 .673-.14 1.3105-.42 1.9125-.262.5844-.655 1.098-1.18 1.5407s-1.172.7968-1.941 1.0625c-.77.2656-1.644.3984-2.623.3984-.944 0-1.793-.1328-2.544-.3984-.752-.2657-1.391-.6375-1.915-1.1157-.507-.4958-.901-1.0713-1.181-1.7265-.262-.6729-.393-1.4078-.393-2.2047l3.672-.2656c0 1.5052.787 2.2578 2.361 2.2578.734 0 1.285-.1683 1.652-.5047.385-.3542.577-.7615.577-1.2219 0-.425-.201-.7526-.603-.9828s-.909-.4427-1.521-.6375c-.595-.1948-1.242-.39843-1.941-.61094-.7-.2125-1.355-.50468-1.967-.87656-.595-.38958-1.093-.89427-1.496-1.51406-.402-.61979-.603-1.42552-.603-2.41719z"/><path clip-rule="evenodd" d="m80.5494 11.8469c.4372-1.0271.6558-2.14273.6558-3.3469 0-1.18646-.2186-2.29323-.6558-3.32031-.4197-1.04479-.9967-1.94792-1.7312-2.70938-.7345-.77917-1.6004-1.38125-2.5968-1.806245-.9796-.442717-2.0287-.66406194-3.1476-.66406194s-2.1769.22135294-3.1743.66406894c-.9786.424998-1.8356 1.027068-2.5701 1.806238-.7345.76146-1.3203 1.66459-1.7574 2.70938-.4197 1.02708-.6296 2.13385-.6296 3.32031 0 1.20417.2099 2.3198.6296 3.3469.4371 1.0271 1.0229 1.9302 1.7574 2.7094.7345.7614 1.5915 1.3635 2.5701 1.8062.9974.425 2.0554.6375 3.1743.6375s2.168-.2125 3.1476-.6375c.9964-.4427 1.8623-1.0448 2.5968-1.8062.7345-.7792 1.3115-1.6823 1.7312-2.7094zm-9.9001.616 6.7781-3.9629-6.7781-3.96295z" fill-rule="evenodd"/></g></svg>