<svg fill="none" height="35" viewBox="0 0 113 35" width="113" xmlns="http://www.w3.org/2000/svg"><g fill="#fff"><path d="m5.25218 5.9598h6.25752l-.4797 3.34096h-6.25757l-.32539 2.22664h6.79576l-.5007 3.5502h-10.7421l2.15678-14.874481h10.74002l-.5214 3.550151h-6.79574z"/><path d="m14.991 10.3851c.6738.9453 1.9607 1.4281 3.1142 1.4281 1.0429 0 1.9607-.3561 2.113-1.1345.1752-.92322-1.1764-1.3235-2.4175-1.49045-2.4175-.37814-4.5889-2.24876-4.0528-5.06273.5882-3.0473 3.377-4.11738005 6.2095-4.11738005 1.8773 0 3.6169.50285205 4.9456 2.37347005l-2.8326 1.89074c-.6529-.71406-1.6687-1.04996-2.5698-1.07209-.9803-.02011-1.8084.33591-1.896 1.0922-.1085.86089.6758 1.23904 1.8522 1.49248 2.6783.48274 5.2939 1.47034 4.5743 5.16736-.5652 2.8924-3.1726 4.3406-6.5099 4.3406-1.8523 0-4.1384-.9031-5.3148-2.6893z"/><path d="m33.7909 3.63242-1.6333 11.45098h-3.9443l1.6353-11.45098h-4.1717l.5214-3.443545h12.2669l-.5026 3.443545z"/><path d="m42.2657 10.0631c-.1752 1.2069.8489 1.7842 1.9607 1.7842 1.1535 0 2.2944-.5874 2.4613-1.7842l1.4371-9.855914h3.9444l-1.4392 9.855914c-.5007 3.4858-3.8547 5.2297-6.9272 5.2297-3.0724 0-5.8821-1.7439-5.3815-5.2297l1.4393-9.855914h3.9422z"/><path d="m60.0413.209176c3.0933 0 5.7736 1.512584 5.273 4.978264l-.7405 4.99636c-.5027 3.4194-3.596 4.8958-6.6893 4.8958h-5.7736l2.1567-14.874445zm-1.5248 11.344424c1.068 0 2.0254-.5672 2.136-1.3658l.7404-5.00036c.1085-.81865-.6549-1.47035-1.7208-1.47035h-1.9836l-1.1535 7.84451z"/><path d="m66.9246 5.10498c.5235-3.41941 3.9214-5.10498 7.1253-5.10498 3.2038 0 6.1658 1.70166 5.6631 5.10498l-.7614 5.07882c-.5006 3.4033-3.7921 5.105-7.1461 5.105-3.2018 0-6.1428-1.7017-5.6318-5.105zm3.1288 5.08282c-.1523 1.0721 1.0033 1.6092 2.1797 1.6092 1.264 0 2.6365-.5451 2.8096-1.7218l.7635-4.97826c.1731-1.11433-.9157-1.68155-2.1798-1.68155-1.264 0-2.6365.56722-2.8096 1.68155z"/><path d="m8.17237 19.6376c2.71163 0 4.79743 1.1746 4.38033 3.9906l-1.0012 6.9112c-.4172 2.7939-2.83264 3.9706-5.53382 3.9706h-5.214628l2.160948-14.8724zm-2.08585 14.3474c2.24438 0 4.57428-1.05 4.92468-3.4456l1.0012-6.9112c.3713-2.4781-1.4809-3.4657-3.92138-3.4657h-4.66814l-2.0045 13.8225z"/><path d="m15.8524 26.8203h7.9742l-.0876.5673h-7.9637l-.9658 6.5954h8.6271l-.0647.525h-9.1777l2.1693-14.8704h9.1777l-.0938.5229h-8.6271z"/><path d="m32.0053 23.5839c.3922-2.7315 3.0266-4.1596 5.9676-4.1596 1.9399 0 3.8797.714 4.5889 2.1421l-.5235.3158c-.6091-1.2813-2.3529-1.9531-4.1175-1.9531-2.3946 0-5.0311 1.219-5.3794 3.6548l-.9804 6.9756c-.3504 2.4358 1.9169 3.6346 4.3136 3.6346 1.5247 0 3.6377-.6034 4.6619-1.8706l.4359.2313c-1.1118 1.4281-3.2039 2.1643-5.1646 2.1643-2.6782 0-5.1833-1.408-4.7974-4.1596z"/><path d="m53.5939 34.508h-.5882l-1.264-5.3142h-7.1232l-2.7241 5.3142h-.5945l7.8282-14.8704h.9804zm-1.9398-5.8331-2.0108-8.6351h-.1293l-4.6118 8.629z"/><path d="m60.9569 26.6514c2.4613.4827 5.077 1.4703 4.445 4.3909-.5319 2.3956-3.0078 3.6809-5.7299 3.6809-1.896 0-3.8129-.7141-4.7286-2.3956l.5444-.2011c.7843 1.3858 2.4843 2.0999 4.2927 2.0999 2.1338 0 4.4011-.9876 5.0332-3.172.5652-2.6471-1.7438-3.3832-4.0529-3.8861-2.2443-.4626-4.9017-1.3034-4.3573-4.1174.4359-2.4579 2.9411-3.6205 5.49-3.6205 1.9836 0 3.7253.6718 4.4658 2.291l-.5444.189c-.6091-1.3456-2.2945-1.9752-4.009-1.9752-2.1777 0-4.3803.881-4.858 3.1097-.4776 2.2286 1.5915 3.1237 4.009 3.6065z"/><path d="m68.733 23.6261c.3922-2.7938 3.3562-4.2018 6.341-4.2018 2.8764 0 5.5338 1.408 5.1416 4.2018l-.9803 6.869c-.3921 2.7959-3.4855 4.224-6.3618 4.224-2.8764 0-5.513-1.4281-5.1208-4.224zm-.4338 6.873c-.3504 2.4801 2.0254 3.699 4.6389 3.699 2.6136 0 5.4024-1.2189 5.7528-3.699l.9803-6.869c.3692-2.6148-2.1129-3.697-4.7056-3.697s-5.3169 1.1345-5.6861 3.697z"/></g><path d="m24.8884 18.8355-19.8156 13.1446c-.48596.3226-1.05408.511-1.64299.5448-.58892.0339-1.17621-.0881-1.69845-.3527-.52224-.2647-.959562-.6619-1.264703-1.1488-.305142-.4869-.466492-1.045-.46664366-1.6139v-26.28518c-.00049091-.5694.16050566-1.12808.46559966-1.61559.305094-.4875.742657-.885242 1.265307-1.15019.52266-.2649472 1.11049-.3870046 1.6999-.35295558.58942.03404908 1.15795.22290858 1.64406.54613058l19.81562 13.142585c.4323.2867.7859.6705 1.0302 1.1184.2442.4478.3719.9462.3719 1.4522s-.1277 1.0044-.3719 1.4523c-.2443.4478-.5979.8316-1.0302 1.1183" fill="#e52228" transform="translate(86.2102 2.16577)"/></svg>