<svg fill="none" height="34" viewBox="0 0 108 34" width="108" xmlns="http://www.w3.org/2000/svg"><path d="m13.8777 10.4819-11.04724 7.3235c-.27106.1799-.58801.285-.91659.304-.32859.019-.65632-.0489-.947742-.1964-.29142-.1474-.535435-.3688-.705716-.6401-.1702811-.2714-.26034184-.5824-.26041636-.8995v-14.63409c.00044008-.31695.09067486-.62778.26096136-.898991.170286-.27121.414173-.492516.705389-.640073.291214-.1475561.618704-.2157658.947194-.19728079.32849.01848499.64552.12296179.91692.30217879l11.04724 7.323506c.2408.15995.4377.37384.5736.62328.136.24945.2071.52699.2071.80874 0 .28174-.0711.55928-.2071.80873-.1359.2494-.3328.4633-.5736.6233" fill="#e52228" transform="translate(92.5117 10.7155)"/><g fill="#fff"><path d="m12.6277 20.3622-5.80381-9.0888h-4.7948l-1.312548 9.0888h-.7165469l2.9487649-20.36220289h7.46454c3.672 0 6.2681 1.38042289 5.7614 5.52166289-.6273 4.22725-3.5225 5.75174-7.36637 5.75174h-1.13397l5.82164 9.0888zm-3.73231-9.721c3.85281 0 6.02701-1.50509 6.56941-5.09159.538-3.6811-1.7322-4.945411-5.1051-4.889507h-6.77922l-1.4621 9.981097z" transform="translate(.2229 8.1178)"/><path d="m16.8399 20.3622h-.8059l-1.7322-7.2762h-9.7637l-3.732273 7.2762h-.80582809l10.71460109-20.36220289h1.3394zm-2.6564-7.9965-2.7478-11.826006h-.1786l-6.33059 11.826006z" transform="translate(15.8662 8.1178)"/><path d="m.745561 20.3622h-.74556699l2.95546599-20.36220289h.74556z" transform="translate(36.0208 8.1178)"/><path d="m1.39273 5.75172c.53796-3.82516 4.59836-5.7517221 8.68777-5.7517221 3.9421 0 7.5896 1.9351621 7.0471 5.7517221l-1.3393 9.40488c-.538 3.8252-4.7769 5.7818-8.71904 5.7818-3.9421 0-7.55383-1.9566-7.0158652-5.7818zm-.598237 9.40918c-.477695 3.393 2.776877 5.0615 6.359587 5.0615 3.58272 0 7.40652-1.6728 7.88422-5.0615l1.3393-9.40487c.5067-3.56715-2.9019-5.061522-6.45111-5.061522-3.54923 0-7.28372 1.552432-7.79267 5.061522z" transform="translate(42.5994 7.82971)"/><path d="m27.0277.00000079h10.1678l-12.1232 16.71549921 7.2837 16.6187h-10.1678l-4.4488-11.3465-7.527 11.3465h-10.21240381l12.12320381-16.6187-7.28376-16.71549921h10.21686l4.2524 11.39589921z" transform="translate(56.95 .555664)"/></g></svg>