<svg fill="none" height="42" viewBox="0 0 106 42" width="106" xmlns="http://www.w3.org/2000/svg"><path d="m0 0h101.489" stroke="#e52228" stroke-dasharray="1.02 1.02" stroke-width="1.02157" transform="translate(0 19.9187)"/><path d="m5.08715 2.56432c0 1.41623-1.13879 2.56431-2.54357 2.56431s-2.54358-1.14808-2.54358-2.56431c0-1.41624 1.1388-2.56432 2.54358-2.56432s2.54357 1.14808 2.54357 2.56432z" fill="#e52228" transform="translate(100.47 17.3541)"/><g fill="#000" transform="translate(.01416)"><path d="m15.7418 14.7899.0622-.5222h-7.33514l1.98914-14.2677h-.51797l-2.05135 14.7899z"/><path d="m21.1972 0h-.518l-2.0514 14.7899h.5181z"/><path d="m26.4595 0h-.8082l-2.0513 14.7899h.5387l1.9892-14.12143 6.6307 14.12143h.8909l2.0514-14.7899h-.518l-1.9892 14.2885z"/><path d="m39.5948 7.66651h9.2621l-.9738 7.12339h.518l2.0513-14.7899h-.518l-.9946 7.14427h-9.2621l.9945-7.14427h-.518l-2.0513 14.7899h.518z"/><path d="m59.6657 0h-.9324l-7.4388 14.7899h.5595l2.5901-5.28509h6.7756l1.2018 5.28509h.5595zm-4.9523 8.98256 4.3928-8.585656h.1244l1.9063 8.585656z"/><path d="m2.05135 26.6689-2.05135 14.7899h5.49099c2.94234 0 5.88471-1.4623 6.36121-4.8673l.7046-4.9717c.4765-3.4468-2.0721-4.9509-5.01446-4.9509zm2.15495 11.2805 1.0982-7.7919h1.88559c1.01531 0 1.74054.6476 1.63693 1.4623l-.7045 4.9717c-.1036.7938-1.01532 1.3579-2.03063 1.3579z"/><path d="m14.2924 36.5915c-.4765 3.3842 2.3208 5.0762 5.3667 5.0762 3.191 0 6.3198-1.692 6.7964-5.0762l.7252-5.0553c.4766-3.3841-2.3414-5.0762-5.3874-5.0762-3.0459 0-6.2783 1.6712-6.7756 5.0762zm4.4343-5.0553c.1657-1.1071 1.4711-1.6712 2.6729-1.6712s2.2379.5641 2.0721 1.6712l-.7252 4.9509c-.1658 1.1698-1.4712 1.7129-2.673 1.7129-1.1189 0-2.2171-.5431-2.0721-1.6085z"/><path d="m45.0465 30.0739.4973-3.4259h-11.6658l-.4973 3.4259h3.9577l-1.5541 11.3849h3.7505l1.554-11.3849z"/><path d="m51.0528 30.1993h6.4648l.4973-3.5304h-10.2153l-2.0513 14.7899h10.2153l.4765-3.5303h-6.4648l.3108-2.2143h5.9468l.4559-3.3215h-5.9469z"/><path d="m58.7586 41.4588h3.709l.5802-4.2615.1865-2.9872.0829-.0209 1.2639 5.0762h2.5487l2.6315-5.0762.1036.0209-.6216 2.9872-.6009 4.2615h3.7297l2.0514-14.7899h-3.7091l-4.1234 7.2279-2.072-7.2279h-3.7091z"/><path d="m75.5124 41.4588h3.709l.6009-4.3241h2.3415c3.5432 0 5.5946-2.3397 5.9054-5.1389.2901-2.6739-1.0568-5.3269-4.6415-5.3269h-5.8639zm4.7658-7.6456.518-3.6557h2.155c1.0774 0 1.554.752 1.4297 1.7338-.1243 1.0027-.7874 1.9428-1.9478 1.9219z"/><path d="m89.4811 36.5915c-.4766 3.3842 2.3207 5.0762 5.3667 5.0762 3.191 0 6.3202-1.692 6.7962-5.0762l.725-5.0553c.477-3.3841-2.341-5.0762-5.387-5.0762-3.0459 0-6.2784 1.6712-6.7757 5.0762zm4.4342-5.0553c.1658-1.1071 1.4712-1.6712 2.673-1.6712s2.2378.5641 2.0721 1.6712l-.7253 4.9509c-.1657 1.1698-1.4711 1.7129-2.6729 1.7129-1.1189 0-2.2171-.5431-2.0721-1.6085z"/></g></svg>