<svg fill="none" height="92" viewBox="0 0 312 92" width="312" xmlns="http://www.w3.org/2000/svg"><path d="m12.9942 9.64545-10.34394 6.73905c-.2538.1656-.55057.2623-.85824.2797-.30766.0175-.61453-.045-.8874-.1807-.272866-.1357-.501347-.3393-.660787-.589-.1594402-.2497-.24376731-.5359-.24383708-.8277v-13.46629c.00041206-.29166.08490218-.57768.24434708-.82725.159446-.249567.387806-.453213.660481-.588994.272676-.1357809.579316-.1985473.886896-.18153742.30757.01700982.60442.11314942.85854.27806342l10.34394 6.739078c.2255.14718.4098.344.5371.57354s.1939.48493.1939.74419c0 .25927-.0666.51465-.1939.74419-.1273.22955-.3116.42638-.5371.57356" fill="#e52228" transform="matrix(2 0 0 2 2.77783 27.7785)"/><g fill="#000" transform="matrix(2 0 0 2 39.7942 32.3054)"><path d="m0 9.8361c.897849 1.3934 2.64367 2.0984 4.05695 2.0984 2.5439 0 4.53912-1.1312 4.97142-3.39349.54869-2.88525-1.44653-3.65575-3.49163-4.0328-.89785-.19672-1.49642-.4918-1.41329-1.16394.06651-.59016.69833-.86885 1.44654-.85246.6817.0164 1.46316.27869 1.96197.83607l2.16148-1.47542c-1.01423-1.459016-2.34438-1.85246-3.77429-1.85246-2.16149 0-4.28972.836068-4.73864 3.21312-.415676 2.19673 1.24701 3.65576 3.09259 3.95084.94773.13115 1.97859.44262 1.84557 1.16394-.11638.60656-.81471.88525-1.6128.88525-.88122 0-1.8622-.37706-2.37764-1.11476z"/><path d="m14.1051 2.93444h5.1876l.3991-2.770505h-8.1971l-1.64603 11.606565h8.19703l.3824-2.77047h-5.1876l.2494-1.73771h4.7719l.3658-2.60657h-4.7719z"/><path d="m19.6234 11.7705h2.9762l.4656-3.34424.1496-2.34427.0665-.0164 1.0143 3.98361h2.0451l2.1116-3.98361.0831.0164-.4988 2.34427-.4822 3.34424h2.9929l1.646-11.606565h-2.9762l-3.3087 5.672145-1.6627-5.672145h-2.9762z"/><path d="m39.7111 2.95083h5.1876l.399-2.786895h-8.197l-1.6461 11.606565h3.0095l.5653-3.99998h4.5391l.3825-2.73772h-4.5392z"/><path d="m51.502 11.7705h3.7078l-2.8266-3.98359c1.6128-.7541 2.5439-1.47541 2.8432-3.62296.3325-2.72132-1.3966-4.000015-3.8242-4.000015h-4.7054l-1.646 11.606565h3.0094l.5155-3.68851h.532zm-2.5605-6.2131.3824-2.65575h1.7458c.8812 0 1.2304.60656 1.1473 1.31148-.0832.67213-.6152 1.34427-1.5297 1.34427z"/><path d="m55.9031 7.95085c-.3825 2.65575 1.8622 3.98365 4.3063 3.98365 2.5605 0 5.0712-1.3279 5.4536-3.98365l.5819-3.96723c.3825-2.65575-1.8788-3.98362-4.3229-3.98362-2.4442 0-5.038 1.31148-5.437 3.98362zm3.5581-3.96723c.133-.86886 1.1805-1.31148 2.1449-1.31148.9643 0 1.7957.44262 1.6626 1.31148l-.5819 3.88526c-.133.91803-1.1805 1.34427-2.1449 1.34427-.8978 0-1.779-.42624-1.6626-1.2623z"/><path d="m66.6949 11.7705h2.9762l.6484-4.63933-.0332-2.24591.0665-.01639.6983 2.32787 2.0119 4.57376h3.0094l1.6461-11.606565h-2.9596l-.7482 5.262315.0333 2-.0665.0164-.6651-2.32788-2.1449-4.950835h-2.8265z"/><path d="m87.824 2.83607.399-2.688528h-9.3609l-.399 2.688528h3.1757l-1.247 8.93443h3.0094l1.247-8.93443z"/><path d="m91.9785 2.93444h5.1875l.3991-2.770505h-8.197l-1.6461 11.606565h8.197l.3824-2.77047h-5.1875l.2494-1.73771h4.7719l.3658-2.60657h-4.7719z"/><path d="m102.119.163935h-2.9762l-1.646 11.606565h2.9762z"/><path d="m108.787 11.7705h3.707l-2.826-3.98359c1.613-.7541 2.544-1.47541 2.843-3.62296.333-2.72132-1.397-4.000015-3.824-4.000015h-4.706l-1.646 11.606565h3.01l.515-3.68851h.532zm-2.561-6.2131.383-2.65575h1.745c.882 0 1.231.60656 1.148 1.31148-.084.67213-.616 1.34427-1.53 1.34427z"/><path d="m120.435.163935h-2.71l-5.753 11.606565h3.192l1.048-2.32785h3.142l.449 2.32785h3.193zm-3.176 6.672155 1.297-3.39346h.117l.349 3.39346z"/><path d="m123.191 9.8361c.898 1.3934 2.644 2.0984 4.057 2.0984 2.544 0 4.539-1.1312 4.972-3.39349.548-2.88525-1.447-3.65575-3.492-4.0328-.898-.19672-1.496-.4918-1.413-1.16394.066-.59016.698-.86885 1.446-.85246.682.0164 1.463.27869 1.962.83607l2.162-1.47542c-1.015-1.459016-2.345-1.85246-3.775-1.85246-2.161 0-4.289.836068-4.738 3.21312-.416 2.19673 1.247 3.65576 3.092 3.95084.948.13115 1.979.44262 1.846 1.16394-.117.60656-.815.88525-1.613.88525-.881 0-1.862-.37706-2.378-1.11476z"/></g></svg>