<svg width="20" height="20" viewBox="0 0 20 20" fill="none" xmlns="http://www.w3.org/2000/svg">
<path fill-rule="evenodd" clip-rule="evenodd" d="M20 20H16V13.001C16 11.081 15.153 10.01 13.634 10.01C11.981 10.01 11 11.126 11 13.001V20H7V7.00001H11V8.46201C11 8.46201 12.255 6.26001 15.083 6.26001C17.912 6.26001 20 7.98601 20 11.558C20 15.129 20 20 20 20V20ZM2.442 4.921C1.093 4.921 0 3.819 0 2.46C0 1.102 1.093 0 2.442 0C3.79 0 4.883 1.102 4.883 2.46C4.884 3.819 3.79 4.921 2.442 4.921V4.921ZM0 20H5V7H0V20Z" fill="#ED3439"/>
</svg>
