<svg fill="none" height="40" viewBox="0 0 40 40" width="40" xmlns="http://www.w3.org/2000/svg"><path clip-rule="evenodd" d="m15.8209 14.1212c-.241.6822-1.199 1.2464-1.963 1.4114-.523.1111-1.205.1991-3.503-.7532-2.58096-1.0693-6.16496-4.87844-6.16496-7.4132 0-1.29039.744-2.79284 2.045-2.79284.626 0 .764.01201.97.50616.241.58217.829 2.0166.899 2.16365.289.60318-.294.95628-.717 1.48144-.135.15805-.288.3291-.117.62319.17.28808.758 1.2464 1.622 2.0156 1.11596.9943 2.02096 1.3114 2.34496 1.4464.241.1001.529.0771.705-.111.223-.2411.5-.6412.782-1.0353.199-.2821.452-.3171.717-.2171.179.062 2.454 1.1184 2.55 1.2874.071.123.071.7052-.17 1.3874zm-5.8189-14.1212h-.005c-5.513 0-9.997 4.48535-9.997 10 0 2.1867.705 4.2153 1.904 5.8608l-1.246 3.7161 3.843-1.2284c1.581 1.0463 3.468 1.6515 5.501 1.6515 5.513 0 9.998-4.4853 9.998-10 0-5.51465-4.485-10-9.998-10z" fill="#ED3439" fill-rule="evenodd" transform="scale(2)"/></svg>