<svg fill="none" height="40" viewBox="0 0 40 40" width="40" xmlns="http://www.w3.org/2000/svg"><path clip-rule="evenodd" d="m5.86965.122727c-1.62788.07345-3.03885.471473-4.17816 1.605983-1.143303 1.14047-1.536343 2.55687-1.6099759 4.16782-.0457717 1.00548-.3134371 8.60167.4626929 10.59377.523393 1.3439 1.554253 2.3772 2.910483 2.9023.63285.2461 1.35525.4129 2.41496.4615 8.86085.401 12.14545.1826 13.53055-3.3638.2458-.6313.4149-1.3529.4617-2.41.405-8.88353-.0657-10.80913-1.61-12.35159-1.2249-1.221857-2.6657-2.053634-12.38225-1.605983zm.08167 17.944573c-.97016-.0436-1.49654-.2054-1.84779-.3414-.88359-.3434-1.54728-1.0045-1.88858-1.8829-.59105-1.5137-.39503-8.70292-.34229-9.86621.05174-1.13948.28259-2.18069 1.08658-2.98467.99504-.99258 2.28063-1.47894 11.03396-1.0839 1.1423.05162 2.1861.2819 2.9921 1.0839.995.99257 1.4886 2.28788 1.0866 11.00768-.0438.9677-.206 1.4928-.3423 1.8432-.9005 2.3077-2.9722 2.6283-11.77828 2.2243zm8.13828-13.37767c0 .65708.5343 1.19109 1.194 1.19109.6598 0 1.1951-.53401 1.1951-1.19109 0-.65709-.5353-1.19109-1.1951-1.19109-.6597 0-1.194.534-1.194 1.19109zm-9.22681 5.29821c0 2.81496 2.2876 5.09686 5.10952 5.09686 2.82189 0 5.10949-2.2819 5.10949-5.09686 0-2.81494-2.2876-5.09587-5.10949-5.09587-2.82192 0-5.10952 2.28093-5.10952 5.09587zm1.79297.0001c0-1.82634 1.4846-3.30825 3.31646-3.30825 1.83188 0 3.31648 1.48191 3.31648 3.30825 0 1.82736-1.4846 3.30926-3.31648 3.30926-1.83186 0-3.31646-1.4819-3.31646-3.30926z" fill="#ED3439" fill-rule="evenodd" transform="scale(2)"/></svg>