<svg fill="none" height="20" viewBox="0 0 20 20" width="20" xmlns="http://www.w3.org/2000/svg"><path clip-rule="evenodd" d="m20 20h-4v-6.999c0-1.92-.847-2.991-2.366-2.991-1.653 0-2.634 1.116-2.634 2.991v6.999h-4v-12.99999h4v1.462s1.255-2.202 4.083-2.202c2.829 0 4.917 1.726 4.917 5.29799zm-17.558-15.079c-1.349 0-2.442-1.102-2.442-2.461 0-1.358 1.093-2.46 2.442-2.46 1.348 0 2.441 1.102 2.441 2.46.001 1.359-1.093 2.461-2.441 2.461zm-2.442 15.079h5v-13h-5z" fill="#ed3439" fill-rule="evenodd"/></svg>