<svg fill="none" height="32" viewBox="0 0 40 32" width="40" xmlns="http://www.w3.org/2000/svg"><path clip-rule="evenodd" d="m6.29 16c7.547 0 11.675-6.15635 11.675-11.49454 0-.17525 0-.34951-.012-.52279.803-.57104 1.496-1.27991 2.047-2.09117-.748.32687-1.543.5415-2.356.63601.856-.50507 1.497-1.29861 1.804-2.234908-.806.470612-1.687.802398-2.606.980608-1.554-1.626468-4.153-1.705231-5.806-.17525-1.065.98651-1.518 2.45742-1.187 3.86039-3.299-.16343-6.373-1.69735-8.457-4.220734-1.089 1.846014-.532 4.206954 1.271 5.392344-.653-.01871-1.292-.19199-1.863-.50507v.05119c.001 1.92282 1.378 3.57882 3.292 3.95983-.604.16245-1.238.18608-1.852.06892.537 1.64617 2.078 2.77347 3.833 2.80597-1.453 1.1243-3.248 1.7347-5.096 1.7328-.326-.001-.652-.0197-.977-.0581 1.877 1.1854 4.06 1.8145 6.29 1.8115" fill="#ED3439" fill-rule="evenodd" transform="scale(2)"/></svg>