<svg fill="none" height="20" viewBox="0 0 20 20" width="20" xmlns="http://www.w3.org/2000/svg"><path clip-rule="evenodd" d="m5.98487 8.44101c.81972-1.97464 2.67498-2.9575 4.07583-2.95948-.0248.00297.1455.02479 8.9308.02479-3.0938-5.9507-8.9229-5.49844658-8.9229-5.49844658-5.89542.23207758-8.2041 4.53939658-8.2041 4.53939658l4.06692 3.99689zm-.17418 2.88809c-1.17216-2.03419-3.34026-5.72759-3.94614-6.78186-3.95999 5.61546-.38114 10.53576-.38114 10.53576 3.04523 4.8319 7.61605 4.9083 7.91206 4.9083l1.31963-5.4766c-2.22746.3292-4.31239-1.0642-4.90441-3.1856zm13.18091-5.82275-5.446 1.7019c.8722 1.13857 1.6157 3.78865-.1396 5.82175-1.1534 2.0014-3.3908 5.8872-4.01049 6.9613 6.61719.252 9.31789-5.066 9.31789-5.066 2.6373-5.02733.4277-9.11249.2782-9.41895zm-5.2489 4.63165c0 2.0331-1.6454 3.6844-3.6779 3.6844-2.02949 0-3.67784-1.6513-3.67784-3.6844 0-2.03319 1.64538-3.68451 3.67784-3.68451 2.0295 0 3.6779 1.64835 3.6779 3.68451z" fill="#ed3439" fill-rule="evenodd"/></svg>