<svg fill="none" height="20" viewBox="0 0 20 20" width="20" xmlns="http://www.w3.org/2000/svg"><path clip-rule="evenodd" d="m9.876 0c-5.477 0-9.876 4.43481-9.876 9.95866 0 4.10004 2.407 7.53054 5.893 9.12074 0-1.8675-.013-1.6265 1.41-7.6989-.782-1.57814-.174-4.18377 1.577-4.18377 2.43 0 .779 3.60287.498 5.02067-.249 1.088.581 1.925 1.577 1.925 1.909 0 3.153-2.4272 3.153-5.27177 0-2.17606-1.493-3.76626-4.066-3.76626-4.575 0-5.735 5.09533-4.149 6.69453.399.604 0 .6323 0 1.4228-.277.836-2.49-.3791-2.49-3.51413 0-2.84562 2.324-6.19239 7.054-6.19239 3.734 0 6.224 2.76091 6.224 5.69023 0 3.93259-2.158 6.77829-5.311 6.77829-1.079 0-2.075-.5859-2.407-1.2555-.603 2.3455-.725 3.5344-1.66 4.8533.913.2511 1.826.4185 2.822.4185 5.477 0 9.875-4.4348 9.875-9.9576-.248-5.60759-4.647-10.0424-10.124-10.0424" fill="#ed3439" fill-rule="evenodd"/></svg>