<?xml version="1.0" standalone="no"?>
<!DOCTYPE svg PUBLIC "-//W3C//DTD SVG 20010904//EN"
 "http://www.w3.org/TR/2001/REC-SVG-20010904/DTD/svg10.dtd">
<svg version="1.0" xmlns="http://www.w3.org/2000/svg"
 width="524.000000pt" height="524.000000pt" viewBox="0 0 524.000000 524.000000"
 preserveAspectRatio="xMidYMid meet">
<metadata>
Created by potrace 1.11, written by Peter Selinger 2001-2013
</metadata>
<g transform="translate(0.000000,524.000000) scale(0.100000,-0.100000)"
fill="#000000" stroke="none">
<path d="M2429 5236 c-2 -2 -36 -6 -74 -10 -66 -6 -86 -9 -160 -21 -16 -3 -32
-5 -35 -5 -3 -1 -23 -6 -45 -11 -22 -6 -49 -12 -60 -14 -86 -14 -307 -89 -435
-147 -107 -49 -245 -121 -248 -130 -2 -4 -8 -8 -13 -8 -13 0 -183 -111 -187
-122 -2 -4 -8 -8 -13 -8 -5 0 -18 -8 -28 -17 -10 -10 -36 -31 -57 -48 -107
-83 -285 -262 -379 -380 -22 -27 -43 -51 -47 -53 -5 -2 -8 -10 -8 -18 0 -8 -4
-14 -8 -14 -26 0 -245 -373 -319 -545 -47 -106 -109 -287 -128 -370 -34 -149
-52 -245 -61 -325 -3 -30 -10 -82 -14 -115 -9 -65 -6 -524 4 -565 4 -14 8 -47
11 -75 2 -27 7 -61 10 -75 3 -14 8 -41 11 -60 3 -19 7 -43 10 -52 3 -10 7 -30
10 -45 3 -23 12 -60 19 -83 1 -3 7 -25 14 -50 24 -88 64 -206 87 -258 13 -29
24 -55 24 -58 0 -14 118 -240 173 -332 52 -86 188 -279 234 -333 142 -162 255
-270 403 -385 80 -62 279 -192 290 -190 3 0 19 -8 35 -20 116 -80 422 -195
635 -238 14 -3 35 -7 47 -10 11 -2 43 -8 70 -12 26 -3 57 -8 68 -11 91 -19
505 -25 625 -9 36 4 76 9 90 11 29 3 105 15 135 22 11 2 32 6 46 9 20 4 192
51 244 68 143 45 468 201 532 256 7 5 15 10 18 10 15 0 257 183 317 240 150
143 180 175 272 290 37 47 74 93 82 103 8 9 14 21 14 26 0 5 3 11 8 13 8 3 58
79 116 175 37 63 109 205 141 278 9 22 21 48 26 58 10 19 51 125 55 142 2 6
12 37 24 70 12 33 24 68 25 77 2 9 13 50 24 90 11 40 23 89 26 108 3 19 8 42
10 50 7 26 18 108 32 235 19 175 7 575 -22 715 -3 14 -8 45 -11 69 -3 25 -8
49 -11 54 -3 4 -7 23 -10 40 -2 18 -15 68 -29 111 -13 44 -24 83 -24 87 0 4
-5 20 -12 36 -6 15 -12 30 -13 33 -28 106 -230 536 -257 548 -5 2 -8 10 -8 18
0 8 -4 14 -9 14 -5 0 -14 14 -21 30 -7 17 -16 30 -21 30 -5 0 -9 5 -9 10 0 14
-103 151 -178 238 -77 88 -199 210 -272 272 -29 25 -58 50 -64 55 -15 14 -45
35 -172 120 -105 70 -364 212 -364 199 0 -4 -10 0 -23 9 -40 26 -300 119 -372
133 -11 2 -38 8 -60 13 -72 18 -118 26 -190 35 -27 4 -61 9 -75 13 -27 6 -465
14 -471 9z m-309 -1541 c102 -59 199 -116 215 -125 79 -46 121 -70 255 -149
80 -47 147 -86 150 -86 3 0 16 -8 30 -16 51 -32 80 -49 112 -67 44 -25 208
-120 233 -135 11 -7 43 -27 72 -44 30 -18 55 -33 57 -33 2 0 125 -71 272 -157
148 -86 278 -161 289 -167 83 -46 155 -91 155 -97 0 -4 -18 -16 -39 -27 -56
-29 -85 -46 -91 -52 -4 -5 -144 -87 -260 -152 -102 -58 -368 -213 -390 -227
-14 -9 -30 -18 -35 -21 -26 -12 -373 -215 -397 -231 -15 -11 -30 -19 -33 -19
-3 0 -24 -11 -46 -26 -22 -14 -56 -34 -75 -45 -66 -37 -100 -57 -152 -88 -29
-17 -57 -31 -62 -31 -6 0 -10 -4 -10 -8 0 -4 -15 -15 -32 -23 -18 -9 -100 -55
-183 -103 -82 -49 -166 -97 -185 -108 -19 -11 -50 -29 -67 -40 -31 -19 -33
-19 -33 -1 -1 25 -1 2248 0 2346 l0 79 33 -20 c17 -11 115 -68 217 -127z"/>
</g>
</svg>
