<svg fill="none" height="20" viewBox="0 0 114 20" width="114" xmlns="http://www.w3.org/2000/svg"><g fill="#000"><path d="m.767538 2.3852 16.209962 13.6587c.39.3286 1.0054.0654 1.0054-.43v-14.53617c0-.413124-.5524-.589508-.8147-.260168l-6.532 8.198888-9.26556-7.87461c-.71275-.207222-1.3158158.67349-.603102 1.24336z"/><path d="m17.2154 18.238-16.20997-13.65864c-.390005-.32862-1.00543-.06543-1.00543.42998v14.53616c0 .4131.552374.5895.814762.2602l6.531938-8.1989 9.2656 7.8746c.7127.2072 1.3158-.6735.6031-1.2434z"/><path d="m22.6917 18.4046v-15.62868c0-.38306.266-.57459.7979-.57459.4514 0 .8705.35241 1.2573 1.05724l6.5283 12.22713v-12.73277c0-.36773.2659-.5516.7979-.5516.5319 0 .7979.18387.7979.5516v15.65167c0 .1839-.0806.3295-.2418.4367-.1612.1073-.3466.1609-.5561.1609-.403 0-.7576-.2911-1.0639-.8734l-6.7217-12.43399v12.70979c0 .1839-.0806.3295-.2418.4367-.1612.1073-.3465.1609-.5561.1609-.2256 0-.4191-.0536-.5803-.1609-.145-.1072-.2176-.2528-.2176-.4367z"/><path d="m36.3586 14.2217v-7.1249c0-1.68545.4513-2.9189 1.354-3.70033.9188-.79676 2.1438-1.19514 3.6751-1.19514s2.7483.39838 3.651 1.19514c.9188.78143 1.3782 2.01488 1.3782 3.70033v7.1249c0 1.7007-.4594 2.9495-1.3782 3.7463-.9027.7814-2.1197 1.1721-3.651 1.1721s-2.7563-.3907-3.6751-1.1721c-.9027-.7968-1.354-2.0456-1.354-3.7463zm1.5957 0c0 2.3443 1.1445 3.5164 3.4334 3.5164s3.4334-1.1721 3.4334-3.5164v-7.1249c0-2.32899-1.1445-3.49348-3.4334-3.49348s-3.4334 1.16449-3.4334 3.49348z"/><path d="m49.8928 18.4046v-15.4678c0-.49031.2659-.73547.7979-.73547.4674 0 .8946.35241 1.2815 1.05724l4.1587 7.63053 4.1587-7.63053c.3869-.70483.814-1.05724 1.2815-1.05724.5319 0 .7979.24516.7979.73547v15.4678c0 .1839-.0806.3295-.2418.4367-.1451.1073-.3304.1609-.5561.1609-.2096 0-.3949-.0536-.5561-.1609-.1612-.1072-.2418-.2528-.2418-.4367v-12.91664l-4.0137 7.21684c-.1773.3217-.3949.4826-.6528.4826-.2418 0-.4513-.1609-.6286-.4826l-3.9895-7.28579v12.98559c0 .1839-.0806.3295-.2418.4367-.1612.1073-.3466.1609-.5561.1609-.2257 0-.4191-.0536-.5803-.1609-.1451-.1072-.2176-.2528-.2176-.4367z"/><path d="m64.7136 18.3587c0-.0766.008-.1303.0242-.1609l5.0533-15.60575c.1128-.35241.4272-.52862.943-.52862s.8382.17621.9671.52862l5.0292 15.60575v.0689c.0161.0307.0242.0537.0242.069 0 .1839-.1048.3447-.3143.4826-.2096.1226-.4272.1839-.6529.1839-.3062 0-.5077-.1302-.6044-.3907l-1.1123-3.5395h-6.6975l-1.1122 3.5395c-.0645.2605-.274.3907-.6286.3907-.2257 0-.4352-.0613-.6287-.1839-.1934-.1225-.2901-.2758-.2901-.4596zm3.0707-4.5967h5.8754l-2.9256-9.26233z"/><path d="m79.1009 18.4276v-15.67467c0-.15322.0644-.28346.1934-.39071.1451-.10726.3224-.16089.5319-.16089h4.2797c1.5313 0 2.7563.39838 3.6751 1.19514.9188.78143 1.3782 2.01488 1.3782 3.70033v6.987c0 1.7007-.4594 2.9495-1.3782 3.7463-.9188.7814-2.1438 1.1721-3.6751 1.1721h-4.2797c-.2095 0-.3868-.0536-.5319-.1609-.129-.1226-.1934-.2605-.1934-.4137zm1.5957-.8274h3.4093c1.0961 0 1.9423-.2911 2.5387-.8733.6125-.5976.9188-1.4786.9188-2.6431v-6.987c0-1.16449-.3063-2.03786-.9188-2.62011-.5964-.58225-1.4426-.87337-2.5387-.87337h-3.4093z"/><path d="m92.6305 18.4046v-15.62868c0-.18387.0726-.32177.2177-.4137.145-.10726.3143-.16089.5077-.16089h8.6081c.403 0 .604.22217.604.66652 0 .19919-.056.3754-.169.52862-.097.1379-.242.20685-.435.20685h-7.7377v6.32044h3.7961c.1934 0 .3385.06895.4352.20684.1128.1226.1693.2835.1693.4827 0 .4137-.2015.6205-.6045.6205h-3.7961v6.3664h7.7377c.177 0 .322.069.435.2069s.169.3064.169.5056c0 .4597-.201.6895-.604.6895h-8.6081c-.1934 0-.3627-.0536-.5077-.1609-.1451-.1072-.2177-.2528-.2177-.4367z"/><path d="m103.942 16.6809c0-.1839.072-.3677.217-.5516.161-.1992.331-.2988.508-.2988.129 0 .29.0996.484.2988l.677.6665c.241.2452.62.4673 1.136.6665.532.1839 1.144.2758 1.838.2758 1.144 0 2.031-.2681 2.659-.8044.629-.5516.943-1.3407.943-2.3673 0-.6895-.153-1.2717-.459-1.7467-.29-.4903-.669-.8657-1.137-1.1262-.451-.2758-.967-.521-1.547-.7355l-1.741-.6435c-.58-.2145-1.104-.46735-1.572-.75847-.451-.30645-.83-.72781-1.136-1.26409-.29-.5516-.435-1.2028-.435-1.95359 0-.79676.153-1.4786.459-2.04553.323-.58224.75-1.01893 1.282-1.31005.532-.29113 1.072-.49798 1.62-.62055.564-.13791 1.152-.20686 1.765-.20686.983 0 1.902.13791 2.756.41371.871.26047 1.306.5899 1.306.98828 0 .18387-.073.3754-.218.57459-.129.18387-.29.2758-.483.2758-.097 0-.282-.06895-.557-.20685-.274-.15322-.66-.29879-1.16-.43669-.484-.15322-1.04-.22983-1.668-.22983-1.016 0-1.854.20685-2.515.62055s-.991 1.09554-.991 2.04553c0 .65885.193 1.21046.58 1.6548.403.44435.903.76612 1.499.96531s1.241.43668 1.934.71248 1.338.57456 1.935.89636c.596.3064 1.088.8044 1.475 1.4939.403.6742.604 1.5093.604 2.5052 0 1.5782-.459 2.7657-1.378 3.5624-.919.7815-2.16 1.1722-3.724 1.1722-1.402 0-2.579-.2835-3.53-.8504-.951-.5822-1.426-1.1262-1.426-1.6318z"/><path d="m38.7456.5774 2.1652-.4845893c.4197-.1237446.6464-.1237506 1.0826 0l2.1652.4845893c.4965.181719.3453.97177-.3093.89995l-2.0105-.41536c-.3572-.087401-.3572-.087401-.7733 0l-1.9332.41536c-.7486.21547-.9753-.718231-.3867-.89995z"/></g></svg>