<svg fill="none" height="40" viewBox="0 0 190 40" width="190" xmlns="http://www.w3.org/2000/svg"><g fill="#1a1a1a" fill-opacity=".6" transform="scale(2)"><path d="m0 2.04232h4.71853v4.98068h-4.71853z"/><path d="m5.76709 2.04232h4.71851v4.98068h-4.71851z"/><path d="m11.5342 2.04232h4.7185v4.98068h-4.7185z"/><path d="m0 8.12981h4.71853v4.98069h-4.71853z"/><path d="m5.76709 8.12981h4.71851v4.98069h-4.71851z"/><path d="m11.5342 8.12981h4.7185v4.98069h-4.7185z"/><path d="m0 14.2173h4.71853v4.9807h-4.71853z"/><path d="m5.76709 14.2173h4.71851v4.9807h-4.71851z"/><path d="m11.5342 14.2173h4.7185v4.9807h-4.7185z"/><path d="m28.4008 5.34493c-1.1069 0-1.9705.48063-2.5907 1.44189-.6202.95298-.9303 2.27057-.9303 3.95278 0 3.497 1.26 5.2455 3.7801 5.2455.7615 0 1.4994-.1119 2.2138-.3356.7144-.2238 1.4327-.4931 2.155-.808v4.1517c-1.4367.6712-3.0617 1.0068-4.8752 1.0068-2.5985 0-4.5926-.7955-5.9821-2.3866-1.3817-1.591-2.0726-3.8906-2.0726-6.8987 0-1.88106.3337-3.53426 1.001-4.95957.6751-1.42532 1.6407-2.51917 2.8968-3.28154 1.264-.77067 2.7477-1.156 4.4513-1.156 1.8606 0 3.6387.42676 5.3345 1.2803l-1.4249 3.86575c-.6359-.31489-1.2718-.58007-1.9077-.79552-.6359-.21546-1.3189-.32319-2.049-.32319z"/><path d="m40.7301 19.7514h-4.6044v-19.341207h4.6044z"/><path d="m48.5493 19.7514h-4.6044v-14.08328h4.6044zm-4.7221-17.58857c0-.72923.1923-1.272008.577-1.628337.3846-.356329 1.0048-.534493 1.8606-.534493.8557 0 1.4798.182308 1.8723.546924.3925.364615.5888.903256.5888 1.615906 0 1.42532-.8204 2.13798-2.4611 2.13798-1.6251 0-2.4376-.71266-2.4376-2.13798z"/><path d="m60.1838 19.7514v-7.6818c0-.9364-.1295-1.6408-.3886-2.11311-.2512-.48062-.6594-.72094-1.2247-.72094-.7772 0-1.3385.32733-1.6839.98195-.3455.6547-.5182 1.7775-.5182 3.3686v6.1653h-4.6043v-14.08328h3.4739l.577 1.74021h.2708c.3925-.66294.9342-1.16014 1.6251-1.49161.6987-.33147 1.4994-.4972 2.4023-.4972 1.4759 0 2.622.45162 3.4385 1.35487.8243.90326 1.2365 2.17527 1.2365 3.81601v9.161z"/><path d="m72.3836 11.8334c.5574-.9364 1.0323-1.6656 1.4249-2.18766l2.991-3.97762h5.1343l-4.6279 5.99128 4.9223 8.092h-5.2638l-2.9204-5.0466-1.4955 1.2057v3.8409h-4.628v-19.341207h4.628v7.607207c0 1.30102-.0864 2.573-.2591 3.816z"/><path d="m94.1218 15.4257c0 1.5082-.4867 2.6476-1.4602 3.4183s-2.3709 1.156-4.1922 1.156c-.9892 0-1.8488-.058-2.5789-.174-.7301-.1077-1.4759-.3108-2.2374-.6091v-3.8906c.7144.3315 1.4955.6049 2.3434.8204.8557.2154 1.6172.3232 2.2845.3232.997 0 1.4955-.2404 1.4955-.721 0-.2486-.1413-.4682-.4239-.6588-.2748-.1989-1.0834-.5801-2.4258-1.1435-1.2247-.5304-2.0804-1.1312-2.5672-1.8024-.4867-.6795-.7301-1.5372-.7301-2.57304 0-1.3093.4789-2.32857 1.4367-3.0578.9577-.72923 2.312-1.09384 4.0627-1.09384.8792 0 1.7035.10358 2.4729.31075.7772.19888 1.5819.49306 2.414.88253l-1.2482 3.13238c-.6124-.29003-1.26-.53449-1.943-.73337-.683-.20717-1.2404-.31075-1.6722-.31075-.7536 0-1.1305.19473-1.1305.58421 0 .24032.1296.44748.3886.6215.2669.16573 1.0284.50963 2.2845 1.03173.9343.406 1.629.8038 2.0844 1.1933.4631.3894.8007.8493 1.0127 1.3797.2198.5221.3297 1.1601.3297 1.9142z"/></g></svg>