<svg height="18" viewBox="0 0 24 18" width="24" xmlns="http://www.w3.org/2000/svg"><path clip-rule="evenodd" d="m21.3765.515076c1.0327.283264 1.846 1.118224 2.122 2.178584.5015 1.9217.5015 5.93134.5015 5.93134s0 4.0095-.5015 5.9313c-.276 1.0604-1.0893 1.8954-2.122 2.1788-1.8715.5149-9.3765.5149-9.3765.5149s-7.50505 0-9.37664-.5149c-1.03268-.2834-1.845951-1.1184-2.121951-2.1788-.501409-1.9218-.501409-5.9313-.501409-5.9313s0-4.00964.501409-5.93134c.276-1.06036 1.089271-1.89532 2.121951-2.178584 1.87159-.515076 9.37664-.515076 9.37664-.515076s7.505 0 9.3765.515076zm-11.6265 4.734924v7.5l6-3.74982z" fill="#fff" fill-rule="evenodd"/></svg>