<svg height="20" viewBox="0 0 20 20" width="20" xmlns="http://www.w3.org/2000/svg"><g fill="#fff"><path d="m15.339 3.46252c-.6626 0-1.2001.53681-1.2001 1.1995 0 .66253.5375 1.2001 1.2001 1.2001.6625 0 1.2-.53757 1.2-1.2001 0-.66239-.5375-1.19995-1.2-1.1995z"/><g clip-rule="evenodd" fill-rule="evenodd"><path d="m4.86551 10.0002c0-2.8362 2.29929-5.13555 5.13529-5.13555s5.1348 2.29935 5.1348 5.13555c0 2.836-2.2985 5.1344-5.1346 5.1344-2.83609 0-5.13549-2.2984-5.13549-5.1344zm8.46889 0c0-1.84117-1.4925-3.33348-3.3334-3.33348-1.84106 0-3.33337 1.49231-3.33337 3.33348 0 1.8408 1.49231 3.3332 3.33337 3.3332 1.8409 0 3.3334-1.4924 3.3334-3.3332z"/><path d="m9.99781 0c-2.71323 0-3.05395.0119019-4.12025.0604248-1.06459.0486752-1.79127.2172852-2.42711.4646302-.65771.255432-1.21564.597075-1.77147 1.153105-.55626.55588-.89793 1.11374-1.154183 1.77124-.247919.63599-.416672 1.36292-.4645892 2.42706-.0477075 1.06675-.0602078 1.40778-.0602078 4.12374 0 2.7157.0120831 3.0555.0604177 4.1223.0489593 1.0646.2175023 1.7912.4645873 2.427.255627.6578.597295 1.2157 1.153345 1.7716.55563.5562 1.11355.8987 1.77085 1.1542.63626.2471 1.36314.4158 2.42753.4644 1.06667.0487 1.40731.0605 4.12296.0605 2.71611 0 3.05591-.0118 4.12251-.0605 1.0646-.0486 1.7921-.2173 2.4284-.4644.6575-.2555 1.2146-.598 1.7702-1.1542.5563-.5559.8979-1.1138 1.1542-1.7714.2458-.636.4146-1.3629.4646-2.4271.0479-1.0666.0604-1.4067.0604-4.1224 0-2.71596-.0125-3.05684-.0604-4.12343-.05-1.06461-.2188-1.79138-.4646-2.42722-.2563-.65765-.5979-1.21551-1.1542-1.77139-.5562-.55633-1.1125-.897978-1.7708-1.153105-.6375-.247345-1.3646-.415955-2.4292-.4646302-1.0667-.0485229-1.4063-.0604248-4.12299-.0604248zm-.89392 1.80206h.89711c2.67 0 2.9865.00962 4.0409.05753.975.04455 1.5041.20752 1.8566.34439.4667.18127.7994.39795 1.1492.74799.35.35003.5667.68328.7484 1.1499.1368.35217.3.88135.3443 1.85638.048 1.05408.0584 1.37085.0584 4.03961 0 2.66874-.0104 2.98534-.0584 4.03964-.0445.975-.2075 1.5042-.3443 1.8562-.1813.4668-.3984.799-.7484 1.1488-.35.3499-.6823.5666-1.1492.7479-.352.1375-.8816.3-1.8566.3447-1.0542.0479-1.3709.0583-4.0409.0583-2.67026 0-2.98672-.0104-4.0409-.0583-.97501-.045-1.50418-.208-1.85689-.3449-.46667-.1813-.80001-.3979-1.15001-.748-.35001-.3498-.56667-.6825-.74834-1.1493-.13688-.3521-.30001-.8813-.34438-1.8563-.04792-1.0541-.0575-1.3709-.0575-4.04133 0-2.67044.00958-2.98538.0575-4.03961.04458-.97504.2075-1.50406.34438-1.85669.18125-.46662.39833-.80002.74834-1.1499.35-.35004.68334-.56672 1.15001-.74845.3525-.13748.88188-.29999 1.85689-.34469.92252-.04166 1.28002-.05417 3.14379-.05631z"/></g></g></svg>