<svg height="82" viewBox="0 0 208 82" width="208" xmlns="http://www.w3.org/2000/svg"><g fill="none"><path d="m0 0h199.5" stroke="#fff" stroke-dasharray="2 2" stroke-width="2" transform="translate(.5 39)"/><g fill="#fff"><circle cx="203" cy="39" r="5"/><path d="m17.4738 31 .1222-1.0183h-14.41894l3.91022-27.8196h-1.01829l-4.03242 28.8379zm10.7239-28.8379h-1.0183l-4.0325 28.8379h1.0183zm10.3442 0h-1.5886l-4.0324 28.8379h1.059l3.9103-27.53449 13.034 27.53449h1.7515l4.0324-28.8379h-1.0183l-3.9102 27.8603zm25.8206 14.9485h18.2069l-1.9143 13.8894h1.0182l4.0325-28.8379h-1.0183l-1.9551 13.9302h-18.207l1.9551-13.9302h-1.0183l-4.0324 28.8379h1.0183zm39.4545-14.9485h-1.833l-14.6229 28.8379h1.0998l5.0914-10.3051h13.3187l2.363 10.3051h1.1zm-9.7352 17.5145 8.6352-16.7406h.244l3.748 16.7406z" transform="translate(14 -2)"/><path d="m4.56193 2.1621-4.032421 28.8379h10.793891c5.7838 0 11.5677-2.8512 12.5045-9.4904l1.3849-9.6941c.9368-6.72073-4.0732-9.6534-9.857-9.6534zm4.23607 21.995 2.1588-15.19284h3.7065c1.9959 0 3.4215 1.26264 3.2178 2.85124l-1.3848 9.6941c-.2037 1.5478-1.9959 2.6475-3.9917 2.6475zm19.8267-2.6475c-.9368 6.5985 4.5619 9.8977 10.5495 9.8977 6.2726 0 12.4231-3.2992 13.3599-9.8977l1.4256-9.8571c.9368-6.59847-4.6027-9.89772-10.5902-9.89772s-12.3416 3.25852-13.3192 9.89772zm8.7165-9.8571c.3259-2.15873 2.892-3.25848 5.2544-3.25848s4.399 1.09975 4.0732 3.25848l-1.4257 9.6534c-.3258 2.281-2.8919 3.34-5.2543 3.34-2.1995 0-4.3583-1.059-4.0732-3.1363zm51.738-2.85117.9775-6.67996h-22.9318l-.9776 6.67996h7.7797l-3.0548 22.19867h7.3724l3.0548-22.19867zm11.8068.24439h12.708l.978-6.88362h-20.081l-4.0324 28.8379h20.0804l.937-6.8836h-12.7082l.611-4.3176h11.6902l.896-6.4763h-11.69zm15.148 21.95428h7.29l1.141-8.3092.367-5.8246.162-.0408 2.485 9.8978h5.01l5.173-9.8978.204.0408-1.222 5.8246-1.182 8.3092h7.332l4.033-28.8379h-7.291l-8.106 14.0931-4.073-14.0931h-7.291zm32.933 0h7.291l1.181-8.4314h4.603c6.965 0 10.997-4.5619 11.608-10.02.571-5.2136-2.077-10.3865-9.123-10.3865h-11.527zm9.368-14.9077 1.019-7.12804h4.236c2.118 0 3.055 1.46634 2.81 3.38074-.244 1.9551-1.548 3.788-3.829 3.7473zm18.091 5.4173c-.937 6.5985 4.562 9.8977 10.549 9.8977 6.273 0 12.424-3.2992 13.36-9.8977l1.426-9.8571c.937-6.59847-4.603-9.89772-10.59-9.89772-5.988 0-12.342 3.25852-13.319 9.89772zm8.716-9.8571c.326-2.15873 2.892-3.25848 5.255-3.25848 2.362 0 4.399 1.09975 4.073 3.25848l-1.426 9.6534c-.325 2.281-2.892 3.34-5.254 3.34-2.199 0-4.358-1.059-4.073-3.1363z" transform="translate(0 50)"/></g></g></svg>