<svg height="14" viewBox="0 0 175 14" width="175" xmlns="http://www.w3.org/2000/svg"><g fill="none"><g fill="#ef474b" transform="translate(110.138 .113647)"><path d="m12.3486 6.94192c0 1.0245-.1727 1.96422-.518 2.81916-.3384.85492-.793 1.58622-1.3639 2.19382-.57089.6077-1.22638 1.0811-1.96645 1.4202-.74008.3392-1.51539.5087-2.32594.5087-.81056 0-1.58939-.1695-2.33651-.5087-.74007-.3391-1.39557-.8125-1.96648-1.4202-.57091-.6076-1.025524-1.3389-1.363843-2.19382-.338318-.85494-.507477-1.79466-.507477-2.81916 0-1.02451.169159-1.96423.507477-2.81916.338319-.85494.792933-1.58622 1.363843-2.19386s1.22641-1.081032 1.96648-1.420179c.74712-.339147 1.52595-.508721 2.33651-.508721.81055 0 1.58586.169574 2.32594.508721.74007.339147 1.39556.812539 1.96645 1.420179.5709.60764 1.0255 1.33892 1.3639 2.19386.3453.85493.518 1.79465.518 2.81916zm-11.25964 0c0 .89732.13392 1.7134.40175 2.44822.27489.72776.64845 1.35306 1.12068 1.87586.47224.5158 1.01496.9186 1.62816 1.2083.6132.2896 1.25812.4345 1.93476.4345.67663 0 1.32155-.1449 1.93475-.4345.61321-.2897 1.1524-.6925 1.61759-1.2083.47225-.5228.84575-1.1481 1.12065-1.87586.2749-.73482.4124-1.5509.4124-2.44822 0-.89733-.1375-1.70987-.4124-2.43762-.2749-.73482-.6484-1.36012-1.12065-1.87591-.46519-.52285-1.00438-.92912-1.61759-1.21881-.6132-.28969-1.25812-.434532-1.93475-.434532-.67664 0-1.32156.144842-1.93476.434532s-1.15592.69596-1.62816 1.21881c-.47223.51579-.84579 1.14109-1.12068 1.87591-.26783.72775-.40175 1.54029-.40175 2.43762z"/><path d="m24.6867.105983v13.671917h-.9727l-7.4747-11.61584v11.61584h-1.0784v-13.671917h.9726l7.4748 11.605217v-11.605217z"/><path d="m36.2846 12.8028v.9751h-7.9082v-13.671917h1.0784v12.696817z"/><path d="m39.5198 13.7779h-1.0784v-13.671917h1.0784z"/><path d="m52.7248.105983v13.671917h-.9727l-7.4747-11.61584v11.61584h-1.0784v-13.671917h.9727l7.4747 11.605217v-11.605217z"/><path d="m64.8619 12.8028v.9751h-8.4473v-13.671917h8.2253v.975047h-7.147v5.09781h6.6078v.97504h-6.6078v5.64892z"/></g><g fill="#fff"><path d="m11.6923.217061h2.8148v13.674439h-3.1396v-6.83723l-3.1396 6.83723h-1.94871l-3.1396-6.83723v6.83723h-3.13959v-13.674439h2.81481l4.43873 9.658909z"/><path d="m17.1062.217061h9.7436v3.038759h-6.604v2.17054h6.0627v3.03876h-6.0627v2.38758h6.8205v3.0388h-9.9601z"/><path d="m40.698.217061v13.674439h-2.8148l-5.5214-8.03103v8.03103h-3.1396v-13.674439h2.8148l5.5214 8.031009v-8.031009z"/><path d="m49.2591 13.8915h-3.1396v-10.63568h-3.8974v-3.038759h10.9345v3.038759h-3.8975z"/><path d="m63.8931 7.05427c0-.56434-.0938-1.08527-.2815-1.56279-.1876-.47752-.4475-.88992-.7795-1.23721-.3175-.34729-.6928-.61499-1.1259-.8031-.433-.20259-.895-.30388-1.3857-.30388-.4908 0-.9528.10129-1.3858.30388-.4331.18811-.8156.45581-1.1476.8031-.3175.34729-.5702.75969-.7578 1.23721-.1877.47752-.2815.99845-.2815 1.56279s.0938 1.08527.2815 1.56279c.1876.47752.4403.88992.7578 1.23721.332.34733.7145.62223 1.1476.82483.433.1881.895.2821 1.3858.2821.4907 0 .9527-.094 1.3857-.2821.4331-.2026.8084-.4775 1.1259-.82483.332-.34729.5919-.75969.7795-1.23721.1877-.47752.2815-.99845.2815-1.56279zm3.1396 0c0 .98398-.1805 1.8956-.5413 2.73488-.3465.83925-.8228 1.57725-1.4291 2.21395-.6062.6222-1.3208 1.1142-2.1436 1.476-.8083.3473-1.6744.5209-2.5982.5209-.9239 0-1.7972-.1736-2.62-.5209-.8083-.3618-1.5157-.8538-2.1219-1.476-.6063-.6367-1.0899-1.3747-1.4507-2.21395-.3465-.83928-.5197-1.7509-.5197-2.73488 0-.96951.1732-1.8739.5197-2.71318.3608-.85375.8444-1.59173 1.4507-2.21395.6062-.63669 1.3136-1.128684 2.1219-1.475971.8228-.361756 1.6961-.542635 2.62-.542635.9238 0 1.7899.180879 2.5982.542635.8228.347287 1.5374.839281 2.1436 1.475971.6063.62222 1.0826 1.3602 1.4291 2.21395.3608.83928.5413 1.74367.5413 2.71318z"/><path d="m74.496.217061c.7073 0 1.3497.115762 1.927.347286.5919.231525 1.0971.542633 1.5157.933333s.7434.85375.9744 1.38915c.2309.52093.3464 1.07803.3464 1.67131 0 .76693-.1371 1.41086-.4114 1.93179-.2598.52093-.5557.9478-.8877 1.28062-.3176.31834-.6135.54987-.8878.69457-.2742.1447-.4114.21705-.4114.21705l3.0314 5.20933h-3.4644l-2.4901-4.55816h-1.6239v4.55816h-3.1396v-13.674439zm0 6.077519c.5485 0 .9743-.14471 1.2775-.43411.3031-.28941.4547-.65116.4547-1.08527s-.1516-.79587-.4547-1.08527c-.3032-.28941-.729-.43411-1.2775-.43411h-2.3818v3.03876z"/><path d="m81.3232.217061h9.7436v3.038759h-6.604v2.17054h6.0627v3.03876h-6.0627v2.38758h6.8205v3.0388h-9.9601z"/><path d="m92.898 4.01551c0-.52093.1082-1.01292.3247-1.47597.231-.47752.5558-.88992.9744-1.23721.4186-.361755.9238-.651161 1.5157-.868215.6062-.217054 1.2919-.325581 2.0569-.325581.7362 0 1.393.108527 1.9704.325581.5919.217054 1.0899.52093 1.4939.911625.419.3907.736.85375.953 1.38915.231.52093.346 1.09251.346 1.71473l-3.0311.21705c0-.54987-.1515-.97674-.4547-1.28062-.3031-.30387-.7289-.45581-1.2775-.45581-.4907 0-.8877.13747-1.1908.4124-.2887.26047-.4331.55711-.4331.88992 0 .33282.166.58605.498.75969.332.17365.7434.34005 1.2342.49923.5052.1447 1.0465.30387 1.6239.47752.5771.17364 1.1111.41963 1.6021.73798.505.31835.924.73798 1.256 1.25891s.498 1.1938.498 2.01861c0 .5499-.115 1.0708-.346 1.5628-.217.4775-.542.8971-.975 1.2589s-.967.6512-1.602.8682c-.6352.2171-1.3569.3256-2.1653.3256-.7794 0-1.4795-.1085-2.1002-.3256-.6207-.217-1.1476-.5209-1.5807-.9116-.4186-.4052-.7434-.8755-.9743-1.4109-.2165-.5498-.3248-1.1503-.3248-1.80151l3.0313-.21705c0 1.22996.6496 1.84496 1.9487 1.84496.6063 0 1.061-.1375 1.3641-.4124.3176-.2894.4764-.6222.4764-.99846 0-.34728-.166-.61498-.498-.8031-.332-.18811-.7506-.36175-1.2558-.52093-.4908-.15917-1.0249-.32558-1.6023-.49922s-1.1187-.4124-1.6239-.71628c-.4908-.31835-.9022-.73075-1.2342-1.23721s-.498-1.16486-.498-1.97519z"/><path clip-rule="evenodd" d="m66.5455 9.68062c.3611-.83929.5416-1.7509.5416-2.73489 0-.9695-.1805-1.87389-.5416-2.71317-.3464-.85375-.8224-1.59173-1.4287-2.21395-.6063-.6367-1.3211-1.12868-2.1435-1.475964-.8087-.361764-1.6749-.542646-2.5985-.542646s-1.797.180882-2.6203.542646c-.8079.347284-1.5154.839264-2.1217 1.475964-.6063.62222-1.0895 1.3602-1.4506 2.21395-.3464.83928-.5197 1.74367-.5197 2.71317 0 .98399.1733 1.8956.5197 2.73489.3611.83928.8443 1.57728 1.4506 2.21398.6063.6222 1.3138 1.1142 2.1217 1.4759.8233.3473 1.6967.521 2.6203.521s1.7898-.1737 2.5985-.521c.8224-.3617 1.5372-.8537 2.1435-1.4759.6063-.6367 1.0823-1.3747 1.4287-2.21398zm-7.9556.38608 5.5952-3.23827-5.5952-3.23831z" fill-rule="evenodd"/></g></g></svg>